<svg width="800" height="600" viewBox="0 0 800 600" fill="none" xmlns="http://www.w3.org/2000/svg">
<path fill-rule="evenodd" clip-rule="evenodd" d="M1.77046 173.505C9.76996 145.796 32.6299 124.387 65.3698 113.942C70.3347 112.357 75.3015 110.772 80.2682 109.187C80.6497 104.657 81.0331 100.127 81.4146 95.5965C83.5089 70.7618 91.4588 54.4608 106.365 44.4388C125.934 31.2799 155.415 34.5135 170.91 51.5155C177.185 58.4022 183.48 72.0324 185.399 82.8848C186.955 91.6982 189.732 91.7673 208.815 83.458C227.431 75.3541 245.668 59.4554 249.219 48.2352C252.431 38.0907 254.451 35.9776 260.35 36.5974C267.721 37.3743 268.146 47.4618 261.327 59.6625C250.201 79.5649 227.197 94.6677 190.524 106.143C187.451 107.105 187.542 106.395 177.626 204.581C168.599 293.945 167.988 302.163 170.391 302.07C172.835 301.976 206.917 292.514 207.848 291.671C208.333 291.233 207.524 286.219 206.051 280.531C201.687 263.672 199.763 240.192 201.419 224.026C206.427 175.125 241.212 135.759 294.775 118.373C302.604 115.832 310.879 114.178 313.164 114.696C322.025 116.711 332.994 152.338 332.994 179.108C332.994 184.189 332.994 189.269 332.994 194.35C339.512 194.987 346.028 195.624 352.545 196.263C377.207 198.675 399.895 206 420.047 218.056C434.636 226.785 435.027 227.199 434.617 233.52C434.087 241.66 424.317 264.017 416.398 275.215C407.849 287.302 396.052 299.414 385.75 306.679C380.862 310.125 376.864 313.687 376.864 314.593C376.864 315.501 380.742 320.252 385.48 325.154C401.002 341.206 420.665 384.41 415.696 391.542C410.38 399.171 370.331 406.71 343.474 405.138C314.827 403.461 293.947 396.392 270.891 380.564C249.658 365.987 233.237 346.384 221.093 321.116C216.162 310.855 213.967 308.083 210.513 307.762C208.115 307.539 197.571 309.904 187.081 313.017C180.724 314.904 174.364 316.791 168.007 318.678C167.813 321.091 167.616 323.505 167.422 325.917C166.838 333.144 166.855 333.164 176.958 337.232C200.038 346.522 226.714 380.484 232.013 407.322C239.572 445.607 210.831 481.648 162.285 494.764C155.991 496.464 150.2 498.329 149.418 498.907C148.636 499.486 146.713 512.354 145.145 527.504C141.437 563.333 141.592 562.816 134.544 562.816C126.936 562.816 126.211 560.657 123.237 529.151C121.893 514.908 119.94 502.284 118.894 501.096C117.849 499.909 113.418 498.938 109.047 498.938C91.8345 498.938 65.5262 490.201 48.3217 478.768C18.9005 459.22 6.86897 422.404 19.9306 391.899C29.0536 370.595 53.7729 348.785 85.7538 333.826C91.3977 331.188 97.0398 328.548 102.684 325.908C102.308 323.034 101.932 320.161 101.556 317.286C100.181 306.776 98.8918 305.295 84.4492 297.633C47.5474 278.058 15.2862 246.09 5.10463 219.011C-0.0662433 205.26 -1.55027 185.009 1.77046 173.505ZM18.1548 174.369C17.3537 176.742 16.6251 183.954 16.5354 190.393C16.2169 213.089 28.9792 235.688 54.8297 258.204C69.341 270.844 92.3971 286.587 96.3988 286.587C98.0639 286.587 98.3768 283.629 97.5394 275.797C96.9062 269.861 93.7953 238.98 90.6291 207.171C82.3988 124.513 82.7706 127.04 78.7308 126.337C76.8349 126.008 68.8985 128.483 61.0935 131.838C40.1907 140.822 24.0905 156.769 18.1548 174.369ZM31.6857 409.164C29.4426 420.669 29.4713 421.366 32.647 432.54C38.2852 452.383 56.903 470.16 80.3731 478.109C93.1964 482.451 115.394 486.006 117.376 484.034C118.406 483.01 106.586 357.511 104.187 343.991C103.605 340.714 73.6878 356.047 60.0539 366.611C45.2947 378.046 34.6364 394.033 31.6857 409.164ZM99.2828 82.8675C95.655 94.3242 95.9545 102.649 102.077 160.557C105.14 189.518 109.949 236.52 112.766 265.006C115.581 293.493 118.459 317.367 119.161 318.06C120.514 319.394 147.06 310.655 149.721 308C150.58 307.142 152.71 291.68 154.453 273.639C156.197 255.597 160.671 211.829 164.397 176.376C168.123 140.922 170.739 111.523 170.21 111.045C169.682 110.566 167.576 110.656 165.529 111.243C162.573 112.093 161.551 114.511 160.54 123.054C156.456 157.525 140.123 172.82 122.421 158.75C111.921 150.406 108.865 139.854 108.949 112.217C109.01 91.567 109.531 87.869 113.506 79.7824C119.051 68.5019 125.21 63.8767 134.687 63.8767C144.27 63.8767 152.554 72.2793 156.891 86.3964C159.567 95.108 160.713 96.679 164.393 96.679C170.414 96.679 171.118 94.8887 169.026 84.903C164.473 63.1724 152.516 51.3929 135.01 51.3929C116.039 51.3929 106.624 59.6884 99.2828 82.8675ZM122.833 334.261C121.977 334.739 121.277 338.093 121.277 341.715C121.277 350.021 132.683 459.772 133.636 460.634C134.846 461.73 136.553 448.197 142.914 387.027C146.303 354.436 148.39 327.388 147.551 326.918C146.223 326.176 127.163 331.838 122.833 334.261ZM127.369 116.699C123.291 117.451 123.062 118.108 124.243 125.654C124.941 130.132 127.161 137.248 129.173 141.468C130.392 144.025 131.613 146.582 132.831 149.138C134.125 147.968 135.418 146.799 136.709 145.629C140.94 141.801 145.706 121.797 143.583 116.79C142.666 114.622 140.963 114.123 137.054 114.872C134.146 115.43 129.787 116.252 127.369 116.699ZM127.68 87.1974C122.968 101.346 124.019 103.001 136.297 100.779C143.219 99.5259 144.072 95.3169 139.433 85.269C135.696 77.1738 130.745 77.9869 127.68 87.1974ZM156.773 408.402C153.233 441.579 150.236 471.737 150.112 475.416C149.889 482.069 149.92 482.1 156.086 480.985C176.232 477.344 200.032 461.506 210.118 445.029C215.186 436.749 215.691 434.43 215.691 419.433C215.691 403.732 215.333 402.286 208.224 389.267C202.59 378.948 196.652 371.766 184.029 360.007C172.194 348.982 166.701 344.958 165.253 346.251C164.128 347.256 160.311 375.224 156.773 408.402ZM219.338 213.213C217.616 219.978 216.948 230.462 217.414 243.426C218.325 268.858 220.797 275.015 225.968 264.741C229.995 256.744 241.731 241.691 251.43 232.085C263.402 220.228 283.878 207.906 301.256 202.1C305.792 200.585 310.327 199.069 314.863 197.555C315.43 194.741 315.998 191.928 316.566 189.116C319.664 173.77 311.72 134.049 305.092 131.746C300.399 130.117 268.136 145.751 256.141 155.469C237.163 170.841 225.442 189.23 219.338 213.213ZM241.332 269.775C238.322 274.749 236.714 279.085 237.758 279.412C241.899 280.707 269.565 264.331 282.516 252.921C296.018 241.025 308.145 224.856 308.182 218.709C308.204 214.676 303.299 215.876 289.548 223.266C269.428 234.079 253.827 249.128 241.332 269.775ZM236.852 315.486C233.943 318.119 253.965 345.776 268.31 358.938C291.099 379.849 312.788 388.393 346.417 389.71C373.501 390.772 397.845 386.841 397.845 381.406C397.845 370.54 379.717 339.728 366.503 328.135C364.285 326.19 362.067 324.244 359.85 322.298C354.897 323.678 349.945 325.055 344.992 326.435C316.101 334.476 276.107 331.324 247.268 318.731C242.072 316.463 237.386 315.002 236.852 315.486ZM246.686 297.336C244.849 298.011 243.348 299.297 243.348 300.193C243.348 302.127 264.415 309.561 280.466 313.293C293.979 316.435 324.9 316.587 335.856 313.568C338.398 312.867 340.942 312.164 343.485 311.463C341.766 310.434 340.05 309.405 338.331 308.376C335.497 306.679 326.914 303.233 319.258 300.719C306.623 296.571 302.784 296.146 277.681 296.127C262.47 296.117 248.523 296.661 246.686 297.336ZM281.717 273.499C277.437 276.185 274.406 279.075 274.986 279.923C275.564 280.771 276.714 281.085 277.542 280.622C280.704 278.852 313.345 283.434 326.031 287.428C333.334 289.726 344.341 294.418 350.489 297.852C354.216 299.934 357.941 302.016 361.668 304.098C363.816 302.897 365.963 301.695 368.109 300.493C380.942 293.315 398.978 273.789 408.236 257.049C420.472 234.923 420.224 234.134 397.845 223.993C376.147 214.161 361.695 210.624 343.231 210.624C338.646 210.624 334.061 210.624 329.475 210.624C328.712 212.782 327.951 214.94 327.188 217.098C320.225 236.814 299.785 262.166 281.717 273.499Z" fill="#CAB8A3"/>
<path fill-rule="evenodd" clip-rule="evenodd" d="M99.2921 83.4414C106.76 60.3925 116.337 52.1435 135.634 52.1435C153.441 52.1435 165.604 63.8569 170.235 85.4655C172.364 95.3951 171.648 97.1754 165.523 97.1754C161.78 97.1754 160.614 95.6132 157.892 86.9505C153.48 72.9127 145.054 64.5573 135.306 64.5573C125.665 64.5573 119.4 69.1564 113.76 80.3736C109.717 88.4148 109.187 92.0921 109.125 112.626C109.04 140.108 112.148 150.6 122.829 158.897C140.836 172.889 157.45 157.68 161.604 123.402C162.632 114.908 163.672 112.502 166.679 111.658C168.761 111.074 170.903 110.985 171.44 111.46C171.978 111.936 169.318 141.17 165.527 176.425C161.737 211.679 157.186 255.201 155.412 273.141C153.639 291.081 151.472 306.456 150.599 307.31C147.892 309.95 120.888 318.64 119.513 317.313C118.799 316.625 115.871 292.884 113.007 264.558C110.142 236.231 105.25 189.493 102.135 160.695C95.9065 103.112 95.6018 94.8337 99.2921 83.4414Z" fill="url(#paint0_radial_15_14)"/>
<path fill-rule="evenodd" clip-rule="evenodd" d="M249.233 296.705C251.101 296.034 265.288 295.493 280.761 295.504C306.296 295.522 310.201 295.945 323.053 300.07C330.841 302.57 339.572 305.996 342.455 307.684C344.203 308.707 345.95 309.73 347.698 310.753C345.111 311.45 342.523 312.149 339.937 312.846C328.792 315.849 297.34 315.698 283.594 312.573C267.267 308.862 245.837 301.469 245.837 299.547C245.837 298.656 247.364 297.377 249.233 296.705Z" fill="url(#paint1_linear_15_14)"/>
<path d="M246.574 435.226H283.22C307.65 435.226 323.391 442.462 330.441 456.935C332.977 462.254 334.245 468.562 334.245 475.86C334.245 483.158 332.946 489.405 330.349 494.601C327.751 499.796 324.256 504.063 319.865 507.403C311.33 513.836 299.919 517.052 285.632 517.052H265.129V564.366H246.574V435.226ZM282.014 502.208C293.208 502.208 301.496 500.043 306.877 495.714C312.258 491.384 314.948 484.643 314.948 475.489C314.948 463.305 309.289 455.45 297.971 451.925C294.012 450.688 289.219 450.069 283.591 450.069H265.129V502.208H282.014ZM399.186 483.097C390.033 483.097 381.869 486.22 374.694 492.467V564.366H356.14V426.319H374.694V478.922C384.714 471.067 395.073 467.14 405.773 467.14C417.215 467.14 425.596 470.541 430.915 477.345C436.481 484.519 439.265 496.085 439.265 512.042V564.366H420.71V512.042C420.71 496.703 416.535 487.55 408.185 484.581C405.526 483.591 402.526 483.097 399.186 483.097ZM488.527 440.792C488.527 444.317 487.352 447.039 485.002 448.956C482.713 450.811 479.837 451.739 476.374 451.739C472.91 451.739 470.034 450.811 467.746 448.956C465.519 447.039 464.406 444.317 464.406 440.792C464.406 437.205 465.519 434.483 467.746 432.628C470.034 430.772 472.91 429.845 476.374 429.845C479.837 429.845 482.713 430.772 485.002 432.628C487.352 434.483 488.527 437.205 488.527 440.792ZM466.818 468.624H485.373V564.366H466.818V468.624ZM518.586 426.319H537.141V528.092C537.141 540.338 539.924 547.543 545.49 549.708C547.346 550.45 549.325 550.821 551.428 550.821C553.531 550.821 555.417 550.574 557.087 550.079V564.366L553.654 564.737C552.541 564.861 551.459 564.923 550.407 564.923C538.532 564.923 529.966 561.026 524.709 553.233C520.627 547.11 518.586 538.761 518.586 528.185V426.319ZM622.77 565.851C587.764 565.851 570.261 548.749 570.261 514.547C570.261 499.827 575.116 488.045 584.826 479.2C593.547 471.16 603.504 467.14 614.699 467.14C626.883 467.14 636.408 471.222 643.273 479.386C649.644 486.993 652.829 497.167 652.829 509.908V517.145H589.558C589.558 534.648 596.701 545.348 610.988 549.244C614.39 550.172 619.616 550.636 626.667 550.636C633.78 550.636 640.738 549.677 647.541 547.76V563.438C640.738 565.047 632.481 565.851 622.77 565.851ZM634.274 503.507C634.274 497.569 632.635 492.56 629.357 488.478C625.523 483.777 620.235 481.427 613.493 481.427C606.38 481.427 600.598 483.684 596.144 488.199C592.062 492.405 590.021 497.507 590.021 503.507H634.274ZM677.507 547.296C675.466 543.77 673.827 539.627 672.59 534.864C671.415 530.102 670.827 523.886 670.827 516.217C670.827 508.547 672.466 501.497 675.744 495.064C679.084 488.57 683.413 483.251 688.732 479.107C699.061 471.129 711.895 467.14 727.233 467.14C735.212 467.14 741.242 467.325 745.324 467.696C745.324 467.696 748.324 468.006 754.323 468.624V564.366H737.624L736.882 553.326C733.171 558.274 727.512 561.954 719.904 564.366C716.997 565.294 713.998 565.758 710.905 565.758C707.875 565.758 704.875 565.449 701.906 564.83C698.937 564.212 695.969 563.191 693 561.769C690.093 560.346 687.31 558.46 684.65 556.109C681.991 553.697 679.61 550.759 677.507 547.296ZM735.768 482.262C731.81 481.767 727.852 481.52 723.893 481.52C719.997 481.52 715.822 482.231 711.369 483.653C706.916 485.014 703.112 487.179 699.958 490.147C693.402 496.332 690.124 505.764 690.124 518.443C690.124 530.442 692.938 539.317 698.566 545.069C702.834 549.337 707.967 551.471 713.967 551.471C721.698 551.471 728.068 548.657 733.078 543.028C734.315 541.606 735.212 540.338 735.768 539.225V482.262Z" fill="#4B2122"/>
<defs>
<radialGradient id="paint0_radial_15_14" cx="0" cy="0" r="1" gradientTransform="matrix(-45.9951 1.60578 -9.78252 -219.378 139.688 215.245)" gradientUnits="userSpaceOnUse">
<stop offset="1" stop-color="#54191E"/>
</radialGradient>
<linearGradient id="paint1_linear_15_14" x1="-1240.28" y1="263.843" x2="-1239.66" y2="244.791" gradientUnits="userSpaceOnUse">
<stop offset="1" stop-color="#54191E"/>
</linearGradient>
</defs>
</svg>
